<svg xmlns="http://www.w3.org/2000/svg" xml:space="preserve" fill-rule="evenodd" stroke-linejoin="round" stroke-miterlimit="2" clip-rule="evenodd" viewBox="0 0 1278 1353"><path fill="#0e3d54" d="M851.4845 1041.4841c72.142.018 72.268-3.084 77.66.002 4.452 2.548-179.688 161.436-220.15 192.614-349.12 269.016-675.432 30.438-705.99-233.29-30.538-263.548 181.6-413.884 190.284-426.204 5.624-7.98-137.702-133.852-125.748-135.724 33.882-5.312 350.836-54.99 424.06-62.872 3.092-.334 3.11 1.606-1.134 38.848-45.742 401.546-45.65 401.314-45.736 401.63-1.786 6.534-54.586-51.542-143.722-139.248-5.666-5.572-10.288-1.62-58.75 46.318-190.088 188.03-83.13 418.022 67.53 470.264 172.428 59.786 302.03-53.802 408.258-150.368 2.618-2.38 2.866-1.906 133.438-1.97Z"/><path fill="#9eadb6" d="M790.3545 890.8421c3.266-29.126 38.798-345.972 41.812-363.952.612-3.644 3.284-1.124 34.738 30.436 110.956 111.336 113.42 116.926 119.908 110.656 48.918-47.26 159.512-130.784 149.818-287.156-7.628-123.034-95.954-200.546-161.518-225.176-198.624-74.616-348.552 119.156-390.11 150.466-5.746 4.33-209.804 2.472-209.91.77-.166-2.714 202.246-179.326 209.144-185.252 290.582-249.64 636.302-81.382 686.254 201.294 47.848 270.762-174.252 435.77-186.086 446.57-4.866 4.44.952 5.536 124.43 129.866 7.182 7.232-9.378 8.062-39.264 12.012-79.178 10.462-382.882 53.97-384.11 54.066-5.962.474-3.148-3.856 4.894-74.6Z"/></svg>